<?xml version="1.0" encoding="utf-8"?><svg viewBox="0 0 36 48" xmlns="http://www.w3.org/2000/svg" xmlns:xlink="http://www.w3.org/1999/xlink"><style>:root>svg{display:none}:root>svg:target{display:block}</style><svg viewBox="0 0 16 16" id="add" xmlns="http://www.w3.org/2000/svg"><path fill="#FF9000" d="M9 7h2a1 1 0 0 1 0 2H9v2a1 1 0 0 1-2 0V9H5a1 1 0 1 1 0-2h2V5a1 1 0 1 1 2 0v2zm-1 9A8 8 0 1 1 8 0a8 8 0 0 1 0 16zm0-2A6 6 0 1 0 8 2a6 6 0 0 0 0 12z"/></svg><svg viewBox="0 0 36 48" id="attachment" xmlns="http://www.w3.org/2000/svg"><g fill="none" fill-rule="evenodd"><path fill="#D4D4D4" d="M36 9v38a1 1 0 0 1-1 1H1a1 1 0 0 1-1-1V1a1 1 0 0 1 1-1h26"/><path fill="#FEFEFE" d="M1 1h26l8 8v38H1z"/><path fill="#45688F" fill-rule="nonzero" d="M12.312 30.35a1.018 1.018 0 0 1-1.433.074A1.006 1.006 0 0 1 10.804 29l6.487-7.168a5.583 5.583 0 0 1 7.873-.395 5.55 5.55 0 0 1 .398 7.851l-8.487 9.377a4.074 4.074 0 0 1-5.732.299 4.023 4.023 0 0 1-.3-5.702l7.825-8.646a2.52 2.52 0 0 1 3.546-.185c1.03.923 1.116 2.5.193 3.529l-7.111 7.924a1.018 1.018 0 0 1-1.433.08 1.006 1.006 0 0 1-.08-1.425l7.11-7.924a.484.484 0 0 0-.717-.648l-7.825 8.645a2.011 2.011 0 0 0 .15 2.852 2.036 2.036 0 0 0 2.866-.15l8.487-9.376a3.538 3.538 0 0 0-.254-5.006l-.01-.01a3.546 3.546 0 0 0-4.99.26l-6.488 7.169z"/><path fill="#D4D4D4" fill-rule="nonzero" d="M27 1v8h8l-8-8zm.707-.707l8 8c.63.63.184 1.707-.707 1.707h-8a1 1 0 0 1-1-1V1c0-.89 1.077-1.337 1.707-.707z"/></g></svg><svg viewBox="0 0 36 48" id="autentication" xmlns="http://www.w3.org/2000/svg"><g fill="none" fill-rule="evenodd"><path fill="#D4D4D4" d="M36 9v38a1 1 0 0 1-1 1H1a1 1 0 0 1-1-1V1a1 1 0 0 1 1-1h26"/><path fill="#FEFEFE" d="M1 1h26l8 8v38H1z"/><path fill="#2192EF" fill-rule="nonzero" d="M26.188 33.406a1 1 0 0 1 1.624 1.167l-3.6 4.997a1 1 0 0 1-1.428.203l-2.4-1.873a.999.999 0 1 1 1.232-1.575l1.58 1.234 2.992-4.153zM18 29.993c-2.761 0-5-2.237-5-4.997A4.998 4.998 0 0 1 18 20c2.761 0 5 2.237 5 4.996a4.998 4.998 0 0 1-5 4.997zm0-1.999a2.999 2.999 0 1 0-3-2.998 2.999 2.999 0 0 0 3 2.998zM17.997 38a.99.99 0 0 1 1.006.983 1 1 0 0 1-.997 1.002l-5 .015A2 2 0 0 1 11 38.006v-2a7.015 7.015 0 0 1 6.997-7.013 6.97 6.97 0 0 1 5.275 2.382.999.999 0 1 1-1.505 1.317 4.969 4.969 0 0 0-3.764-1.7A5.016 5.016 0 0 0 13 36.006v2L17.997 38z"/><path fill="#D4D4D4" fill-rule="nonzero" d="M27 1v8h8l-8-8zm.707-.707l8 8c.63.63.184 1.707-.707 1.707h-8a1 1 0 0 1-1-1V1c0-.89 1.077-1.337 1.707-.707z"/></g></svg><svg viewBox="0 0 36 48" id="big" xmlns="http://www.w3.org/2000/svg"><g fill="none" fill-rule="evenodd"><path fill="#D4D4D4" d="M36 9v38a1 1 0 0 1-1 1H1a1 1 0 0 1-1-1V1a1 1 0 0 1 1-1h26"/><path fill="#FEFEFE" d="M1 1h26l8 8v38H1z"/><path fill="#D4D4D4" d="M5.5 15h11a.5.5 0 1 1 0 1h-11a.5.5 0 1 1 0-1zm0 6h25a.5.5 0 1 1 0 1h-25a.5.5 0 1 1 0-1zm0-2h25a.5.5 0 1 1 0 1h-25a.5.5 0 1 1 0-1zm0 4h25a.5.5 0 1 1 0 1h-25a.5.5 0 1 1 0-1zm0 9h25a.5.5 0 1 1 0 1h-25a.5.5 0 1 1 0-1zm0 2h25a.5.5 0 1 1 0 1h-25a.5.5 0 1 1 0-1zm0 2h10a.5.5 0 1 1 0 1h-10a.5.5 0 1 1 0-1zm0 2h10a.5.5 0 1 1 0 1h-10a.5.5 0 1 1 0-1zM6 26h10a1 1 0 0 1 1 1v2a1 1 0 0 1-1 1H6a1 1 0 0 1-1-1v-2a1 1 0 0 1 1-1zm0 1v2h10v-2H6zm14-1h10a1 1 0 0 1 1 1v2a1 1 0 0 1-1 1H20a1 1 0 0 1-1-1v-2a1 1 0 0 1 1-1zm0 1v2h10v-2H20zm0 9h10a1 1 0 0 1 1 1v1a1 1 0 0 1-1 1H20a1 1 0 0 1-1-1v-1a1 1 0 0 1 1-1zm0 1v1h10v-1H20z"/><path fill="#D4D4D4" fill-rule="nonzero" d="M27 1v8h8l-8-8zm.707-.707l8 8c.63.63.184 1.707-.707 1.707h-8a1 1 0 0 1-1-1V1c0-.89 1.077-1.337 1.707-.707z"/></g></svg><svg viewBox="0 0 36 48" id="big2" xmlns="http://www.w3.org/2000/svg"><g fill="none" fill-rule="evenodd" opacity=".5"><path fill="#D4D4D4" d="M36 9v38a1 1 0 0 1-1 1H1a1 1 0 0 1-1-1V1a1 1 0 0 1 1-1h26"/><path fill="#FEFEFE" d="M1 1h26l8 8v38H1z"/><path fill="#D4D4D4" d="M5.5 15h11a.5.5 0 1 1 0 1h-11a.5.5 0 1 1 0-1zm0 6h25a.5.5 0 1 1 0 1h-25a.5.5 0 1 1 0-1zm0-2h25a.5.5 0 1 1 0 1h-25a.5.5 0 1 1 0-1zm0 4h25a.5.5 0 1 1 0 1h-25a.5.5 0 1 1 0-1zm0 9h25a.5.5 0 1 1 0 1h-25a.5.5 0 1 1 0-1zm0 2h25a.5.5 0 1 1 0 1h-25a.5.5 0 1 1 0-1zm0 2h10a.5.5 0 1 1 0 1h-10a.5.5 0 1 1 0-1zm0 2h10a.5.5 0 1 1 0 1h-10a.5.5 0 1 1 0-1zM6 26h10a1 1 0 0 1 1 1v2a1 1 0 0 1-1 1H6a1 1 0 0 1-1-1v-2a1 1 0 0 1 1-1zm0 1v2h10v-2H6zm14-1h10a1 1 0 0 1 1 1v2a1 1 0 0 1-1 1H20a1 1 0 0 1-1-1v-2a1 1 0 0 1 1-1zm0 1v2h10v-2H20zm0 9h10a1 1 0 0 1 1 1v1a1 1 0 0 1-1 1H20a1 1 0 0 1-1-1v-1a1 1 0 0 1 1-1zm0 1v1h10v-1H20z"/><path fill="#D4D4D4" fill-rule="nonzero" d="M27 1v8h8l-8-8zm.707-.707l8 8c.63.63.184 1.707-.707 1.707h-8a1 1 0 0 1-1-1V1c0-.89 1.077-1.337 1.707-.707z"/></g></svg><svg viewBox="0 0 16 16" id="change" xmlns="http://www.w3.org/2000/svg"><path fill="#414141" d="M10.393 3.52l2.087 2.087-8.349 8.35L1 15l1.044-3.131 8.349-8.35zm1.044-1.044l1.043-1.044a1.476 1.476 0 0 1 2.088 2.088l-1.044 1.043-2.087-2.087z"/></svg><svg viewBox="0 0 16 16" id="delete" xmlns="http://www.w3.org/2000/svg"><path fill="#414141" d="M2 2h3V1a1 1 0 0 1 1-1h3a1 1 0 0 1 1 1v1h4.5a.5.5 0 0 1 .5.5v1a.5.5 0 0 1-.5.5H13v10a2 2 0 0 1-2 2H4a2 2 0 0 1-2-2V4H.5a.5.5 0 0 1-.5-.5v-1A.5.5 0 0 1 .5 2H2zm2 2v10h7V4H4zm1.5 1a.5.5 0 0 1 .5.5v7a.5.5 0 1 1-1 0v-7a.5.5 0 0 1 .5-.5zm2 0a.5.5 0 0 1 .5.5v7a.5.5 0 1 1-1 0v-7a.5.5 0 0 1 .5-.5zm2 0a.5.5 0 0 1 .5.5v7a.5.5 0 1 1-1 0v-7a.5.5 0 0 1 .5-.5z"/></svg><svg viewBox="0 0 16 16" id="drag" xmlns="http://www.w3.org/2000/svg"><path fill="#414141" d="M5 2c0-.552.444-1 1-1 .552 0 1 .444 1 1 0 .552-.444 1-1 1-.552 0-1-.444-1-1zm4 0c0-.552.444-1 1-1 .552 0 1 .444 1 1 0 .552-.444 1-1 1-.552 0-1-.444-1-1zM5 6c0-.552.444-1 1-1 .552 0 1 .444 1 1 0 .552-.444 1-1 1-.552 0-1-.444-1-1zm4 0c0-.552.444-1 1-1 .552 0 1 .444 1 1 0 .552-.444 1-1 1-.552 0-1-.444-1-1zm-4 4c0-.552.444-1 1-1 .552 0 1 .444 1 1 0 .552-.444 1-1 1-.552 0-1-.444-1-1zm4 0c0-.552.444-1 1-1 .552 0 1 .444 1 1 0 .552-.444 1-1 1-.552 0-1-.444-1-1zm-4 4c0-.552.444-1 1-1 .552 0 1 .444 1 1 0 .552-.444 1-1 1-.552 0-1-.444-1-1zm4 0c0-.552.444-1 1-1 .552 0 1 .444 1 1 0 .552-.444 1-1 1-.552 0-1-.444-1-1z"/></svg><svg viewBox="0 0 16 16" id="fillable-mark" xmlns="http://www.w3.org/2000/svg"><defs><path id="ia" d="M1 0h15v15a1 1 0 0 1-1 1H0V1a1 1 0 0 1 1-1z"/></defs><g fill="none" fill-rule="evenodd"><mask id="ib" fill="#fff"><use xlink:href="#ia"/></mask><use fill="#DDD" xlink:href="#ia"/><g fill="#3BB273" mask="url(#ib)"><path d="M0 0h16v16H0z"/></g><path fill="#FFF" d="M7 9v2a1 1 0 0 1-2 0V5a1 1 0 0 1 1-1h4a1 1 0 0 1 0 2H7v1h2a1 1 0 1 1 0 2H7z"/></g></svg><svg viewBox="0 0 36 48" id="form" xmlns="http://www.w3.org/2000/svg"><g fill="none" fill-rule="evenodd"><path fill="#D4D4D4" d="M36 9v38a1 1 0 0 1-1 1H1a1 1 0 0 1-1-1V1a1 1 0 0 1 1-1h26"/><path fill="#FEFEFE" d="M1 1h26l8 8v38H1z"/><path fill="#D4D4D4" fill-rule="nonzero" d="M27 1v8h8l-8-8zm.707-.707l8 8c.63.63.184 1.707-.707 1.707h-8a1 1 0 0 1-1-1V1c0-.89 1.077-1.337 1.707-.707z"/><path fill="#1E3888" fill-rule="nonzero" d="M10 25a2 2 0 1 1 0-4 2 2 0 0 1 0 4zm0 7a2 2 0 1 1 0-4 2 2 0 0 1 0 4zm0 7a2 2 0 1 1 0-4 2 2 0 0 1 0 4zm5-17h12a1 1 0 0 1 0 2H15a1 1 0 0 1 0-2zm0 7h12a1 1 0 0 1 0 2H15a1 1 0 0 1 0-2zm0 7h12a1 1 0 0 1 0 2H15a1 1 0 0 1 0-2z"/></g></svg><svg viewBox="0 0 36 48" id="generate-document" xmlns="http://www.w3.org/2000/svg"><g fill="none" fill-rule="evenodd"><path fill="#D4D4D4" d="M36 9v38a1 1 0 0 1-1 1H1a1 1 0 0 1-1-1V1a1 1 0 0 1 1-1h26"/><path fill="#FEFEFE" d="M1 1h26l8 8v38H1z"/><path fill="#D4D4D4" fill-rule="nonzero" d="M27 1v8h8l-8-8zm.707-.707l8 8c.63.63.184 1.707-.707 1.707h-8a1 1 0 0 1-1-1V1c0-.89 1.077-1.337 1.707-.707z"/><path fill="#FF9000" fill-rule="nonzero" d="M26 22h1.5a.5.5 0 1 1 0 1H26v1.5a.5.5 0 1 1-1 0V23h-1.5a.5.5 0 1 1 0-1H25v-1.5a.5.5 0 1 1 1 0V22zm-8 1h1a.5.5 0 1 1 0 1h-1v1a.5.5 0 1 1-1 0v-1h-1a.5.5 0 1 1 0-1h1v-1a.5.5 0 1 1 1 0v1zm7 7h1a.5.5 0 1 1 0 1h-1v1a.5.5 0 1 1-1 0v-1h-1a.5.5 0 1 1 0-1h1v-1a.5.5 0 1 1 1 0v1zM9.707 39.707a1 1 0 1 1-1.414-1.414l12-12a1 1 0 0 1 1.414 1.414l-12 12z"/></g></svg><svg viewBox="0 0 36 48" id="payment" xmlns="http://www.w3.org/2000/svg"><g fill="none" fill-rule="evenodd"><path fill="#D4D4D4" d="M36 9v38a1 1 0 0 1-1 1H1a1 1 0 0 1-1-1V1a1 1 0 0 1 1-1h26"/><path fill="#FEFEFE" d="M1 1h26l8 8v38H1z"/><path fill="#3BB273" fill-rule="nonzero" d="M17 28.918v-5.821c-1.783.32-3 1.41-3 2.903 0 1.579 1.117 2.628 3 2.918zm2-5.87v6.02c2.954.362 5 2.137 5 4.932 0 2.733-2.159 4.54-5 4.923V40a1 1 0 0 1-2 0v-1.035c-1.573-.135-2.828-.664-3.726-1.61a1 1 0 0 1 1.452-1.377c.504.532 1.252.864 2.274.978v-6.022c-2.953-.355-5-2.132-5-4.934 0-2.733 2.17-4.547 5-4.926V20a1 1 0 0 1 2 0v1.039c1.57.143 2.827.69 3.731 1.658a1 1 0 1 1-1.462 1.365c-.513-.55-1.258-.892-2.269-1.013zm0 8.037V36.9c1.793-.322 3-1.407 3-2.9 0-1.571-1.116-2.62-3-2.915z"/><path fill="#D4D4D4" fill-rule="nonzero" d="M27 1v8h8l-8-8zm.707-.707l8 8c.63.63.184 1.707-.707 1.707h-8a1 1 0 0 1-1-1V1c0-.89 1.077-1.337 1.707-.707z"/></g></svg><svg viewBox="0 0 16 15" id="small" xmlns="http://www.w3.org/2000/svg"><g fill="none" fill-rule="evenodd"><path d="M16 8A8 8 0 1 1 0 8a8 8 0 0 1 16 0"/><path fill="#2192EF" d="M8 15c-2.764.121-5.553-1.593-6.698-4.226C.094 8.176.632 4.831 2.697 2.697 4.704.516 8.112-.29 10.966.84 13.841 1.896 15.953 4.833 16 8v.034a1 1 0 1 1-2.001.03L14 8c.116-2.368-1.343-4.776-3.608-5.774-2.234-1.051-5.131-.605-6.988 1.178-1.899 1.73-2.613 4.69-1.64 7.179C2.673 13.091 5.229 14.948 8 15"/></g></svg><svg viewBox="0 0 24 24" id="upload-document" xmlns="http://www.w3.org/2000/svg"><path fill="#d4d4d4" d="M18 8a1 1 0 0 1 2 0v12a2 2 0 0 1-2 2H6a2 2 0 0 1-2-2V4a2 2 0 0 1 2-2h8a1 1 0 0 1 0 2H6v16h12V8zm-5 5.414V18a1 1 0 0 1-2 0v-4.586l-1.293 1.293a1 1 0 1 1-1.414-1.414l3-3a1 1 0 0 1 1.414 0l3 3a1 1 0 0 1-1.414 1.414L13 13.414zm1.707-11.121l5 5C20.337 7.923 19.891 9 19 9h-5a1 1 0 0 1-1-1V3c0-.89 1.077-1.337 1.707-.707zM15 7h1.586L15 5.414V7z"/></svg></svg>